<mxfile host="app.diagrams.net" modified="2022-06-21T07:30:23.198Z" agent="5.0 (Macintosh; Intel Mac OS X 10_15_7) AppleWebKit/537.36 (KHTML, like Gecko) Chrome/102.0.0.0 Safari/537.36" etag="fS8YZqno1Z-Y5ODSQ6JX" version="20.0.1" type="github">
  <diagram id="C5RBs43oDa-KdzZeNtuy" name="Page-1">
    <mxGraphModel dx="2703" dy="1754" grid="1" gridSize="10" guides="1" tooltips="1" connect="1" arrows="1" fold="1" page="1" pageScale="1" pageWidth="827" pageHeight="1169" math="0" shadow="0">
      <root>
        <mxCell id="WIyWlLk6GJQsqaUBKTNV-0" />
        <mxCell id="WIyWlLk6GJQsqaUBKTNV-1" parent="WIyWlLk6GJQsqaUBKTNV-0" />
        <mxCell id="pDLvY0O1U7fhV3GYsjCB-40" value="" style="rounded=0;whiteSpace=wrap;html=1;fillColor=#ffe6cc;strokeColor=#d79b00;" parent="WIyWlLk6GJQsqaUBKTNV-1" vertex="1">
          <mxGeometry x="10" y="10" width="920" height="1920" as="geometry" />
        </mxCell>
        <mxCell id="pDLvY0O1U7fhV3GYsjCB-38" style="edgeStyle=orthogonalEdgeStyle;rounded=0;orthogonalLoop=1;jettySize=auto;html=1;entryX=0.5;entryY=0;entryDx=0;entryDy=0;" parent="WIyWlLk6GJQsqaUBKTNV-1" source="pDLvY0O1U7fhV3GYsjCB-35" target="pDLvY0O1U7fhV3GYsjCB-39" edge="1">
          <mxGeometry relative="1" as="geometry">
            <mxPoint x="420" y="130" as="targetPoint" />
          </mxGeometry>
        </mxCell>
        <mxCell id="pDLvY0O1U7fhV3GYsjCB-35" value="Start" style="rounded=0;whiteSpace=wrap;html=1;fillColor=#d5e8d4;strokeColor=#82b366;" parent="WIyWlLk6GJQsqaUBKTNV-1" vertex="1">
          <mxGeometry x="360" y="20" width="120" height="60" as="geometry" />
        </mxCell>
        <mxCell id="pDLvY0O1U7fhV3GYsjCB-36" value="End" style="rounded=0;whiteSpace=wrap;html=1;fillColor=#f8cecc;strokeColor=#b85450;" parent="WIyWlLk6GJQsqaUBKTNV-1" vertex="1">
          <mxGeometry x="380" y="1810" width="120" height="60" as="geometry" />
        </mxCell>
        <mxCell id="pDLvY0O1U7fhV3GYsjCB-49" value="Yes" style="edgeStyle=none;rounded=0;orthogonalLoop=1;jettySize=auto;html=1;entryX=1;entryY=0.5;entryDx=0;entryDy=0;" parent="WIyWlLk6GJQsqaUBKTNV-1" source="pDLvY0O1U7fhV3GYsjCB-39" target="pDLvY0O1U7fhV3GYsjCB-48" edge="1">
          <mxGeometry relative="1" as="geometry" />
        </mxCell>
        <mxCell id="pDLvY0O1U7fhV3GYsjCB-52" style="edgeStyle=orthogonalEdgeStyle;rounded=0;orthogonalLoop=1;jettySize=auto;html=1;entryX=0.5;entryY=0;entryDx=0;entryDy=0;startArrow=none;startFill=0;endArrow=classic;endFill=1;exitX=0;exitY=0.5;exitDx=0;exitDy=0;" parent="WIyWlLk6GJQsqaUBKTNV-1" source="pDLvY0O1U7fhV3GYsjCB-39" target="pDLvY0O1U7fhV3GYsjCB-51" edge="1">
          <mxGeometry relative="1" as="geometry">
            <mxPoint x="360" y="290" as="sourcePoint" />
            <Array as="points">
              <mxPoint x="360" y="240" />
              <mxPoint x="170" y="240" />
            </Array>
          </mxGeometry>
        </mxCell>
        <mxCell id="pDLvY0O1U7fhV3GYsjCB-53" value="No" style="edgeLabel;html=1;align=center;verticalAlign=middle;resizable=0;points=[];" parent="pDLvY0O1U7fhV3GYsjCB-52" vertex="1" connectable="0">
          <mxGeometry x="0.1177" y="-1" relative="1" as="geometry">
            <mxPoint as="offset" />
          </mxGeometry>
        </mxCell>
        <mxCell id="pDLvY0O1U7fhV3GYsjCB-39" value="Is there a game stored?" style="rhombus;whiteSpace=wrap;html=1;" parent="WIyWlLk6GJQsqaUBKTNV-1" vertex="1">
          <mxGeometry x="360" y="120" width="120" height="120" as="geometry" />
        </mxCell>
        <mxCell id="pDLvY0O1U7fhV3GYsjCB-41" value="Application" style="text;html=1;strokeColor=none;fillColor=none;align=center;verticalAlign=middle;whiteSpace=wrap;rounded=0;" parent="WIyWlLk6GJQsqaUBKTNV-1" vertex="1">
          <mxGeometry x="60" y="35" width="60" height="30" as="geometry" />
        </mxCell>
        <mxCell id="pDLvY0O1U7fhV3GYsjCB-42" value="" style="rounded=0;whiteSpace=wrap;html=1;fillColor=#fff2cc;strokeColor=#d6b656;" parent="WIyWlLk6GJQsqaUBKTNV-1" vertex="1">
          <mxGeometry x="1165.5" y="15" width="469" height="1915" as="geometry" />
        </mxCell>
        <mxCell id="pDLvY0O1U7fhV3GYsjCB-43" value="Data Base" style="text;html=1;strokeColor=none;fillColor=none;align=center;verticalAlign=middle;whiteSpace=wrap;rounded=0;" parent="WIyWlLk6GJQsqaUBKTNV-1" vertex="1">
          <mxGeometry x="1181" y="40" width="60" height="30" as="geometry" />
        </mxCell>
        <mxCell id="pDLvY0O1U7fhV3GYsjCB-46" style="rounded=0;orthogonalLoop=1;jettySize=auto;html=1;entryX=1;entryY=0.5;entryDx=0;entryDy=0;dashed=1;" parent="WIyWlLk6GJQsqaUBKTNV-1" source="pDLvY0O1U7fhV3GYsjCB-45" target="pDLvY0O1U7fhV3GYsjCB-39" edge="1">
          <mxGeometry relative="1" as="geometry" />
        </mxCell>
        <mxCell id="pDLvY0O1U7fhV3GYsjCB-45" value="Game Storage" style="rounded=1;whiteSpace=wrap;html=1;" parent="WIyWlLk6GJQsqaUBKTNV-1" vertex="1">
          <mxGeometry x="1290" y="150" width="120" height="60" as="geometry" />
        </mxCell>
        <mxCell id="pDLvY0O1U7fhV3GYsjCB-55" style="edgeStyle=orthogonalEdgeStyle;rounded=0;orthogonalLoop=1;jettySize=auto;html=1;entryX=0;entryY=0.5;entryDx=0;entryDy=0;startArrow=none;startFill=0;endArrow=classic;endFill=1;" parent="WIyWlLk6GJQsqaUBKTNV-1" source="pDLvY0O1U7fhV3GYsjCB-48" target="pDLvY0O1U7fhV3GYsjCB-54" edge="1">
          <mxGeometry relative="1" as="geometry">
            <Array as="points">
              <mxPoint x="50" y="180" />
              <mxPoint x="50" y="350" />
            </Array>
          </mxGeometry>
        </mxCell>
        <mxCell id="pDLvY0O1U7fhV3GYsjCB-48" value="Show resume botton" style="rounded=1;whiteSpace=wrap;html=1;" parent="WIyWlLk6GJQsqaUBKTNV-1" vertex="1">
          <mxGeometry x="110" y="150" width="120" height="60" as="geometry" />
        </mxCell>
        <mxCell id="pDLvY0O1U7fhV3GYsjCB-56" style="edgeStyle=orthogonalEdgeStyle;rounded=0;orthogonalLoop=1;jettySize=auto;html=1;entryX=0;entryY=0.5;entryDx=0;entryDy=0;startArrow=none;startFill=0;endArrow=classic;endFill=1;" parent="WIyWlLk6GJQsqaUBKTNV-1" source="pDLvY0O1U7fhV3GYsjCB-51" target="pDLvY0O1U7fhV3GYsjCB-54" edge="1">
          <mxGeometry relative="1" as="geometry" />
        </mxCell>
        <mxCell id="pDLvY0O1U7fhV3GYsjCB-51" value="Set resume botton opacity to 40% and cancel the hotspot link." style="rounded=1;whiteSpace=wrap;html=1;" parent="WIyWlLk6GJQsqaUBKTNV-1" vertex="1">
          <mxGeometry x="110" y="260" width="120" height="60" as="geometry" />
        </mxCell>
        <mxCell id="pDLvY0O1U7fhV3GYsjCB-61" style="edgeStyle=orthogonalEdgeStyle;rounded=0;orthogonalLoop=1;jettySize=auto;html=1;entryX=0.5;entryY=0;entryDx=0;entryDy=0;startArrow=none;startFill=0;endArrow=classic;endFill=1;" parent="WIyWlLk6GJQsqaUBKTNV-1" source="pDLvY0O1U7fhV3GYsjCB-54" target="pDLvY0O1U7fhV3GYsjCB-57" edge="1">
          <mxGeometry relative="1" as="geometry">
            <Array as="points">
              <mxPoint x="420" y="400" />
              <mxPoint x="160" y="400" />
            </Array>
          </mxGeometry>
        </mxCell>
        <mxCell id="pDLvY0O1U7fhV3GYsjCB-62" style="edgeStyle=orthogonalEdgeStyle;rounded=0;orthogonalLoop=1;jettySize=auto;html=1;entryX=0.5;entryY=0;entryDx=0;entryDy=0;startArrow=none;startFill=0;endArrow=classic;endFill=1;" parent="WIyWlLk6GJQsqaUBKTNV-1" source="pDLvY0O1U7fhV3GYsjCB-54" target="pDLvY0O1U7fhV3GYsjCB-58" edge="1">
          <mxGeometry relative="1" as="geometry" />
        </mxCell>
        <mxCell id="pDLvY0O1U7fhV3GYsjCB-66" value="Optional" style="edgeLabel;html=1;align=center;verticalAlign=middle;resizable=0;points=[];" parent="pDLvY0O1U7fhV3GYsjCB-62" vertex="1" connectable="0">
          <mxGeometry x="0.3667" y="3" relative="1" as="geometry">
            <mxPoint as="offset" />
          </mxGeometry>
        </mxCell>
        <mxCell id="pDLvY0O1U7fhV3GYsjCB-63" style="edgeStyle=orthogonalEdgeStyle;rounded=0;orthogonalLoop=1;jettySize=auto;html=1;entryX=0.5;entryY=0;entryDx=0;entryDy=0;startArrow=none;startFill=0;endArrow=classic;endFill=1;" parent="WIyWlLk6GJQsqaUBKTNV-1" source="pDLvY0O1U7fhV3GYsjCB-54" target="pDLvY0O1U7fhV3GYsjCB-59" edge="1">
          <mxGeometry relative="1" as="geometry">
            <Array as="points">
              <mxPoint x="420" y="400" />
              <mxPoint x="660" y="400" />
            </Array>
          </mxGeometry>
        </mxCell>
        <mxCell id="pDLvY0O1U7fhV3GYsjCB-64" style="edgeStyle=orthogonalEdgeStyle;rounded=0;orthogonalLoop=1;jettySize=auto;html=1;entryX=0.5;entryY=0;entryDx=0;entryDy=0;startArrow=none;startFill=0;endArrow=classic;endFill=1;" parent="WIyWlLk6GJQsqaUBKTNV-1" source="pDLvY0O1U7fhV3GYsjCB-54" target="pDLvY0O1U7fhV3GYsjCB-60" edge="1">
          <mxGeometry relative="1" as="geometry" />
        </mxCell>
        <mxCell id="pDLvY0O1U7fhV3GYsjCB-54" value="Home page" style="rounded=1;whiteSpace=wrap;html=1;" parent="WIyWlLk6GJQsqaUBKTNV-1" vertex="1">
          <mxGeometry x="360" y="320" width="120" height="60" as="geometry" />
        </mxCell>
        <mxCell id="pDLvY0O1U7fhV3GYsjCB-77" style="edgeStyle=orthogonalEdgeStyle;rounded=0;orthogonalLoop=1;jettySize=auto;html=1;startArrow=none;startFill=0;endArrow=classic;endFill=1;" parent="WIyWlLk6GJQsqaUBKTNV-1" source="pDLvY0O1U7fhV3GYsjCB-57" target="pDLvY0O1U7fhV3GYsjCB-67" edge="1">
          <mxGeometry relative="1" as="geometry" />
        </mxCell>
        <mxCell id="pDLvY0O1U7fhV3GYsjCB-57" value="New Game" style="rounded=1;whiteSpace=wrap;html=1;" parent="WIyWlLk6GJQsqaUBKTNV-1" vertex="1">
          <mxGeometry x="100" y="440" width="120" height="60" as="geometry" />
        </mxCell>
        <mxCell id="pDLvY0O1U7fhV3GYsjCB-88" style="edgeStyle=orthogonalEdgeStyle;rounded=0;orthogonalLoop=1;jettySize=auto;html=1;entryX=0.5;entryY=0;entryDx=0;entryDy=0;startArrow=none;startFill=0;endArrow=classic;endFill=1;" parent="WIyWlLk6GJQsqaUBKTNV-1" source="pDLvY0O1U7fhV3GYsjCB-58" target="pDLvY0O1U7fhV3GYsjCB-87" edge="1">
          <mxGeometry relative="1" as="geometry">
            <Array as="points">
              <mxPoint x="400" y="1010" />
              <mxPoint x="310" y="1010" />
            </Array>
          </mxGeometry>
        </mxCell>
        <mxCell id="pDLvY0O1U7fhV3GYsjCB-58" value="Resume" style="rounded=1;whiteSpace=wrap;html=1;" parent="WIyWlLk6GJQsqaUBKTNV-1" vertex="1">
          <mxGeometry x="340" y="440" width="120" height="60" as="geometry" />
        </mxCell>
        <mxCell id="pDLvY0O1U7fhV3GYsjCB-59" value="Settings" style="rounded=1;whiteSpace=wrap;html=1;" parent="WIyWlLk6GJQsqaUBKTNV-1" vertex="1">
          <mxGeometry x="600" y="440" width="120" height="60" as="geometry" />
        </mxCell>
        <mxCell id="pDLvY0O1U7fhV3GYsjCB-65" style="edgeStyle=orthogonalEdgeStyle;rounded=0;orthogonalLoop=1;jettySize=auto;html=1;startArrow=none;startFill=0;endArrow=classic;endFill=1;exitX=0.5;exitY=1;exitDx=0;exitDy=0;" parent="WIyWlLk6GJQsqaUBKTNV-1" source="pDLvY0O1U7fhV3GYsjCB-60" target="pDLvY0O1U7fhV3GYsjCB-36" edge="1">
          <mxGeometry relative="1" as="geometry">
            <Array as="points">
              <mxPoint x="850" y="1840" />
            </Array>
          </mxGeometry>
        </mxCell>
        <mxCell id="pDLvY0O1U7fhV3GYsjCB-60" value="Quit" style="rounded=1;whiteSpace=wrap;html=1;" parent="WIyWlLk6GJQsqaUBKTNV-1" vertex="1">
          <mxGeometry x="790" y="440" width="120" height="60" as="geometry" />
        </mxCell>
        <mxCell id="pDLvY0O1U7fhV3GYsjCB-79" style="edgeStyle=orthogonalEdgeStyle;rounded=0;orthogonalLoop=1;jettySize=auto;html=1;entryX=0.5;entryY=0;entryDx=0;entryDy=0;startArrow=none;startFill=0;endArrow=classic;endFill=1;" parent="WIyWlLk6GJQsqaUBKTNV-1" source="pDLvY0O1U7fhV3GYsjCB-67" target="pDLvY0O1U7fhV3GYsjCB-68" edge="1">
          <mxGeometry relative="1" as="geometry" />
        </mxCell>
        <mxCell id="pDLvY0O1U7fhV3GYsjCB-81" style="edgeStyle=orthogonalEdgeStyle;rounded=0;orthogonalLoop=1;jettySize=auto;html=1;entryX=0.5;entryY=0;entryDx=0;entryDy=0;startArrow=none;startFill=0;endArrow=classic;endFill=1;" parent="WIyWlLk6GJQsqaUBKTNV-1" source="pDLvY0O1U7fhV3GYsjCB-67" target="pDLvY0O1U7fhV3GYsjCB-69" edge="1">
          <mxGeometry relative="1" as="geometry" />
        </mxCell>
        <mxCell id="pDLvY0O1U7fhV3GYsjCB-67" value="Create two teams" style="rounded=1;whiteSpace=wrap;html=1;" parent="WIyWlLk6GJQsqaUBKTNV-1" vertex="1">
          <mxGeometry x="100" y="520" width="120" height="60" as="geometry" />
        </mxCell>
        <mxCell id="pDLvY0O1U7fhV3GYsjCB-68" value="Team name" style="rounded=1;whiteSpace=wrap;html=1;" parent="WIyWlLk6GJQsqaUBKTNV-1" vertex="1">
          <mxGeometry x="40" y="620" width="120" height="60" as="geometry" />
        </mxCell>
        <mxCell id="pDLvY0O1U7fhV3GYsjCB-83" style="edgeStyle=orthogonalEdgeStyle;rounded=0;orthogonalLoop=1;jettySize=auto;html=1;entryX=0.5;entryY=0;entryDx=0;entryDy=0;startArrow=none;startFill=0;endArrow=classic;endFill=1;" parent="WIyWlLk6GJQsqaUBKTNV-1" source="pDLvY0O1U7fhV3GYsjCB-69" target="pDLvY0O1U7fhV3GYsjCB-70" edge="1">
          <mxGeometry relative="1" as="geometry" />
        </mxCell>
        <mxCell id="pDLvY0O1U7fhV3GYsjCB-69" value="roster" style="rounded=1;whiteSpace=wrap;html=1;" parent="WIyWlLk6GJQsqaUBKTNV-1" vertex="1">
          <mxGeometry x="170" y="620" width="120" height="60" as="geometry" />
        </mxCell>
        <mxCell id="pDLvY0O1U7fhV3GYsjCB-84" style="edgeStyle=orthogonalEdgeStyle;rounded=0;orthogonalLoop=1;jettySize=auto;html=1;entryX=0.5;entryY=0;entryDx=0;entryDy=0;startArrow=none;startFill=0;endArrow=classic;endFill=1;" parent="WIyWlLk6GJQsqaUBKTNV-1" source="pDLvY0O1U7fhV3GYsjCB-70" target="pDLvY0O1U7fhV3GYsjCB-71" edge="1">
          <mxGeometry relative="1" as="geometry" />
        </mxCell>
        <mxCell id="pDLvY0O1U7fhV3GYsjCB-85" style="edgeStyle=orthogonalEdgeStyle;rounded=0;orthogonalLoop=1;jettySize=auto;html=1;startArrow=none;startFill=0;endArrow=classic;endFill=1;" parent="WIyWlLk6GJQsqaUBKTNV-1" source="pDLvY0O1U7fhV3GYsjCB-70" target="pDLvY0O1U7fhV3GYsjCB-72" edge="1">
          <mxGeometry relative="1" as="geometry" />
        </mxCell>
        <mxCell id="pDLvY0O1U7fhV3GYsjCB-70" value="player" style="rounded=1;whiteSpace=wrap;html=1;" parent="WIyWlLk6GJQsqaUBKTNV-1" vertex="1">
          <mxGeometry x="170" y="710" width="120" height="60" as="geometry" />
        </mxCell>
        <mxCell id="pDLvY0O1U7fhV3GYsjCB-91" style="edgeStyle=orthogonalEdgeStyle;rounded=0;orthogonalLoop=1;jettySize=auto;html=1;entryX=0.5;entryY=0;entryDx=0;entryDy=0;startArrow=none;startFill=0;endArrow=classic;endFill=1;" parent="WIyWlLk6GJQsqaUBKTNV-1" source="pDLvY0O1U7fhV3GYsjCB-71" target="pDLvY0O1U7fhV3GYsjCB-86" edge="1">
          <mxGeometry relative="1" as="geometry" />
        </mxCell>
        <mxCell id="pDLvY0O1U7fhV3GYsjCB-71" value="Name (optional)" style="rounded=1;whiteSpace=wrap;html=1;" parent="WIyWlLk6GJQsqaUBKTNV-1" vertex="1">
          <mxGeometry x="100" y="810" width="120" height="60" as="geometry" />
        </mxCell>
        <mxCell id="pDLvY0O1U7fhV3GYsjCB-92" style="edgeStyle=orthogonalEdgeStyle;rounded=0;orthogonalLoop=1;jettySize=auto;html=1;entryX=0.5;entryY=0;entryDx=0;entryDy=0;startArrow=none;startFill=0;endArrow=classic;endFill=1;" parent="WIyWlLk6GJQsqaUBKTNV-1" source="pDLvY0O1U7fhV3GYsjCB-72" target="pDLvY0O1U7fhV3GYsjCB-86" edge="1">
          <mxGeometry relative="1" as="geometry" />
        </mxCell>
        <mxCell id="pDLvY0O1U7fhV3GYsjCB-72" value="Number" style="rounded=1;whiteSpace=wrap;html=1;" parent="WIyWlLk6GJQsqaUBKTNV-1" vertex="1">
          <mxGeometry x="240" y="810" width="120" height="60" as="geometry" />
        </mxCell>
        <mxCell id="pDLvY0O1U7fhV3GYsjCB-73" value="Team storage" style="rounded=1;whiteSpace=wrap;html=1;" parent="WIyWlLk6GJQsqaUBKTNV-1" vertex="1">
          <mxGeometry x="1290" y="290" width="120" height="60" as="geometry" />
        </mxCell>
        <mxCell id="pDLvY0O1U7fhV3GYsjCB-74" value="roster storage" style="rounded=1;whiteSpace=wrap;html=1;" parent="WIyWlLk6GJQsqaUBKTNV-1" vertex="1">
          <mxGeometry x="1290" y="410" width="120" height="60" as="geometry" />
        </mxCell>
        <mxCell id="pDLvY0O1U7fhV3GYsjCB-75" value="players" style="rounded=1;whiteSpace=wrap;html=1;" parent="WIyWlLk6GJQsqaUBKTNV-1" vertex="1">
          <mxGeometry x="1290" y="520" width="120" height="60" as="geometry" />
        </mxCell>
        <mxCell id="D53Oo4E0U6xB47TRFpwZ-25" style="edgeStyle=orthogonalEdgeStyle;rounded=0;orthogonalLoop=1;jettySize=auto;html=1;entryX=1;entryY=0.5;entryDx=0;entryDy=0;dashed=1;startArrow=classic;startFill=1;" edge="1" parent="WIyWlLk6GJQsqaUBKTNV-1" source="pDLvY0O1U7fhV3GYsjCB-76" target="D53Oo4E0U6xB47TRFpwZ-22">
          <mxGeometry relative="1" as="geometry" />
        </mxCell>
        <mxCell id="pDLvY0O1U7fhV3GYsjCB-76" value="player stats" style="rounded=1;whiteSpace=wrap;html=1;" parent="WIyWlLk6GJQsqaUBKTNV-1" vertex="1">
          <mxGeometry x="1290" y="650" width="120" height="60" as="geometry" />
        </mxCell>
        <mxCell id="pDLvY0O1U7fhV3GYsjCB-78" style="edgeStyle=orthogonalEdgeStyle;rounded=0;orthogonalLoop=1;jettySize=auto;html=1;exitX=0.5;exitY=1;exitDx=0;exitDy=0;startArrow=none;startFill=0;endArrow=classic;endFill=1;" parent="WIyWlLk6GJQsqaUBKTNV-1" source="pDLvY0O1U7fhV3GYsjCB-68" target="pDLvY0O1U7fhV3GYsjCB-68" edge="1">
          <mxGeometry relative="1" as="geometry" />
        </mxCell>
        <mxCell id="pDLvY0O1U7fhV3GYsjCB-89" style="edgeStyle=orthogonalEdgeStyle;rounded=0;orthogonalLoop=1;jettySize=auto;html=1;entryX=0.5;entryY=0;entryDx=0;entryDy=0;startArrow=none;startFill=0;endArrow=classic;endFill=1;" parent="WIyWlLk6GJQsqaUBKTNV-1" source="pDLvY0O1U7fhV3GYsjCB-86" target="pDLvY0O1U7fhV3GYsjCB-87" edge="1">
          <mxGeometry relative="1" as="geometry" />
        </mxCell>
        <mxCell id="pDLvY0O1U7fhV3GYsjCB-90" style="edgeStyle=orthogonalEdgeStyle;rounded=0;orthogonalLoop=1;jettySize=auto;html=1;startArrow=none;startFill=0;endArrow=classic;endFill=1;dashed=1;" parent="WIyWlLk6GJQsqaUBKTNV-1" source="pDLvY0O1U7fhV3GYsjCB-86" target="pDLvY0O1U7fhV3GYsjCB-45" edge="1">
          <mxGeometry relative="1" as="geometry" />
        </mxCell>
        <mxCell id="pDLvY0O1U7fhV3GYsjCB-86" value="Store" style="rounded=1;whiteSpace=wrap;html=1;" parent="WIyWlLk6GJQsqaUBKTNV-1" vertex="1">
          <mxGeometry x="160" y="920" width="120" height="60" as="geometry" />
        </mxCell>
        <mxCell id="D53Oo4E0U6xB47TRFpwZ-1" value="" style="edgeStyle=orthogonalEdgeStyle;rounded=0;orthogonalLoop=1;jettySize=auto;html=1;" edge="1" parent="WIyWlLk6GJQsqaUBKTNV-1" source="pDLvY0O1U7fhV3GYsjCB-87" target="D53Oo4E0U6xB47TRFpwZ-0">
          <mxGeometry relative="1" as="geometry" />
        </mxCell>
        <mxCell id="pDLvY0O1U7fhV3GYsjCB-87" value="Read" style="rounded=1;whiteSpace=wrap;html=1;" parent="WIyWlLk6GJQsqaUBKTNV-1" vertex="1">
          <mxGeometry x="250" y="1040" width="120" height="60" as="geometry" />
        </mxCell>
        <mxCell id="D53Oo4E0U6xB47TRFpwZ-5" style="edgeStyle=orthogonalEdgeStyle;rounded=0;orthogonalLoop=1;jettySize=auto;html=1;entryX=0.5;entryY=0;entryDx=0;entryDy=0;" edge="1" parent="WIyWlLk6GJQsqaUBKTNV-1" source="D53Oo4E0U6xB47TRFpwZ-0" target="D53Oo4E0U6xB47TRFpwZ-2">
          <mxGeometry relative="1" as="geometry" />
        </mxCell>
        <mxCell id="D53Oo4E0U6xB47TRFpwZ-6" style="edgeStyle=orthogonalEdgeStyle;rounded=0;orthogonalLoop=1;jettySize=auto;html=1;entryX=0.5;entryY=0;entryDx=0;entryDy=0;" edge="1" parent="WIyWlLk6GJQsqaUBKTNV-1" source="D53Oo4E0U6xB47TRFpwZ-0" target="D53Oo4E0U6xB47TRFpwZ-3">
          <mxGeometry relative="1" as="geometry" />
        </mxCell>
        <mxCell id="D53Oo4E0U6xB47TRFpwZ-0" value="Game" style="whiteSpace=wrap;html=1;rounded=1;" vertex="1" parent="WIyWlLk6GJQsqaUBKTNV-1">
          <mxGeometry x="360" y="1140" width="120" height="60" as="geometry" />
        </mxCell>
        <mxCell id="D53Oo4E0U6xB47TRFpwZ-19" style="edgeStyle=orthogonalEdgeStyle;rounded=0;orthogonalLoop=1;jettySize=auto;html=1;entryX=0.5;entryY=0;entryDx=0;entryDy=0;" edge="1" parent="WIyWlLk6GJQsqaUBKTNV-1" source="D53Oo4E0U6xB47TRFpwZ-2" target="D53Oo4E0U6xB47TRFpwZ-18">
          <mxGeometry relative="1" as="geometry" />
        </mxCell>
        <mxCell id="D53Oo4E0U6xB47TRFpwZ-21" style="edgeStyle=orthogonalEdgeStyle;rounded=0;orthogonalLoop=1;jettySize=auto;html=1;dashed=1;" edge="1" parent="WIyWlLk6GJQsqaUBKTNV-1" source="D53Oo4E0U6xB47TRFpwZ-2" target="D53Oo4E0U6xB47TRFpwZ-3">
          <mxGeometry relative="1" as="geometry" />
        </mxCell>
        <mxCell id="D53Oo4E0U6xB47TRFpwZ-2" value="Edit on court players" style="rounded=1;whiteSpace=wrap;html=1;" vertex="1" parent="WIyWlLk6GJQsqaUBKTNV-1">
          <mxGeometry x="150" y="1260" width="120" height="60" as="geometry" />
        </mxCell>
        <mxCell id="D53Oo4E0U6xB47TRFpwZ-8" style="edgeStyle=orthogonalEdgeStyle;rounded=0;orthogonalLoop=1;jettySize=auto;html=1;entryX=0.5;entryY=0;entryDx=0;entryDy=0;" edge="1" parent="WIyWlLk6GJQsqaUBKTNV-1" source="D53Oo4E0U6xB47TRFpwZ-3" target="D53Oo4E0U6xB47TRFpwZ-7">
          <mxGeometry relative="1" as="geometry" />
        </mxCell>
        <mxCell id="D53Oo4E0U6xB47TRFpwZ-10" style="edgeStyle=orthogonalEdgeStyle;rounded=0;orthogonalLoop=1;jettySize=auto;html=1;entryX=0.5;entryY=0;entryDx=0;entryDy=0;" edge="1" parent="WIyWlLk6GJQsqaUBKTNV-1" source="D53Oo4E0U6xB47TRFpwZ-3" target="D53Oo4E0U6xB47TRFpwZ-9">
          <mxGeometry relative="1" as="geometry" />
        </mxCell>
        <mxCell id="D53Oo4E0U6xB47TRFpwZ-3" value="Add events" style="rounded=1;whiteSpace=wrap;html=1;" vertex="1" parent="WIyWlLk6GJQsqaUBKTNV-1">
          <mxGeometry x="540" y="1250" width="120" height="60" as="geometry" />
        </mxCell>
        <mxCell id="D53Oo4E0U6xB47TRFpwZ-14" style="edgeStyle=orthogonalEdgeStyle;rounded=0;orthogonalLoop=1;jettySize=auto;html=1;entryX=0.5;entryY=0;entryDx=0;entryDy=0;" edge="1" parent="WIyWlLk6GJQsqaUBKTNV-1" source="D53Oo4E0U6xB47TRFpwZ-7" target="D53Oo4E0U6xB47TRFpwZ-13">
          <mxGeometry relative="1" as="geometry" />
        </mxCell>
        <mxCell id="D53Oo4E0U6xB47TRFpwZ-15" style="edgeStyle=orthogonalEdgeStyle;rounded=0;orthogonalLoop=1;jettySize=auto;html=1;" edge="1" parent="WIyWlLk6GJQsqaUBKTNV-1" source="D53Oo4E0U6xB47TRFpwZ-7" target="D53Oo4E0U6xB47TRFpwZ-12">
          <mxGeometry relative="1" as="geometry" />
        </mxCell>
        <mxCell id="D53Oo4E0U6xB47TRFpwZ-7" value="1/2/3 pointers" style="rounded=1;whiteSpace=wrap;html=1;" vertex="1" parent="WIyWlLk6GJQsqaUBKTNV-1">
          <mxGeometry x="380" y="1350" width="120" height="60" as="geometry" />
        </mxCell>
        <mxCell id="D53Oo4E0U6xB47TRFpwZ-17" style="edgeStyle=orthogonalEdgeStyle;rounded=0;orthogonalLoop=1;jettySize=auto;html=1;entryX=1;entryY=0.5;entryDx=0;entryDy=0;" edge="1" parent="WIyWlLk6GJQsqaUBKTNV-1" source="D53Oo4E0U6xB47TRFpwZ-9" target="D53Oo4E0U6xB47TRFpwZ-12">
          <mxGeometry relative="1" as="geometry" />
        </mxCell>
        <mxCell id="D53Oo4E0U6xB47TRFpwZ-9" value="fouls, turnovers, vialations" style="rounded=1;whiteSpace=wrap;html=1;" vertex="1" parent="WIyWlLk6GJQsqaUBKTNV-1">
          <mxGeometry x="690" y="1350" width="120" height="60" as="geometry" />
        </mxCell>
        <mxCell id="D53Oo4E0U6xB47TRFpwZ-11" value="Game record" style="rounded=1;whiteSpace=wrap;html=1;" vertex="1" parent="WIyWlLk6GJQsqaUBKTNV-1">
          <mxGeometry x="1500" y="290" width="120" height="60" as="geometry" />
        </mxCell>
        <mxCell id="D53Oo4E0U6xB47TRFpwZ-24" style="edgeStyle=orthogonalEdgeStyle;rounded=0;orthogonalLoop=1;jettySize=auto;html=1;entryX=0.5;entryY=0;entryDx=0;entryDy=0;" edge="1" parent="WIyWlLk6GJQsqaUBKTNV-1" source="D53Oo4E0U6xB47TRFpwZ-12" target="D53Oo4E0U6xB47TRFpwZ-22">
          <mxGeometry relative="1" as="geometry">
            <Array as="points">
              <mxPoint x="640" y="1530" />
              <mxPoint x="440" y="1530" />
            </Array>
          </mxGeometry>
        </mxCell>
        <mxCell id="D53Oo4E0U6xB47TRFpwZ-12" value="Store to game record, and corresponding player&#39;s stats." style="rounded=1;whiteSpace=wrap;html=1;" vertex="1" parent="WIyWlLk6GJQsqaUBKTNV-1">
          <mxGeometry x="580" y="1450" width="120" height="60" as="geometry" />
        </mxCell>
        <mxCell id="D53Oo4E0U6xB47TRFpwZ-16" style="edgeStyle=orthogonalEdgeStyle;rounded=0;orthogonalLoop=1;jettySize=auto;html=1;entryX=0;entryY=0.5;entryDx=0;entryDy=0;" edge="1" parent="WIyWlLk6GJQsqaUBKTNV-1" source="D53Oo4E0U6xB47TRFpwZ-13" target="D53Oo4E0U6xB47TRFpwZ-12">
          <mxGeometry relative="1" as="geometry" />
        </mxCell>
        <mxCell id="D53Oo4E0U6xB47TRFpwZ-13" value="Assist/rebounds" style="rounded=1;whiteSpace=wrap;html=1;" vertex="1" parent="WIyWlLk6GJQsqaUBKTNV-1">
          <mxGeometry x="380" y="1450" width="120" height="60" as="geometry" />
        </mxCell>
        <mxCell id="D53Oo4E0U6xB47TRFpwZ-23" style="edgeStyle=orthogonalEdgeStyle;rounded=0;orthogonalLoop=1;jettySize=auto;html=1;dashed=1;" edge="1" parent="WIyWlLk6GJQsqaUBKTNV-1" source="D53Oo4E0U6xB47TRFpwZ-18" target="pDLvY0O1U7fhV3GYsjCB-45">
          <mxGeometry relative="1" as="geometry">
            <mxPoint x="1020" y="1540" as="targetPoint" />
          </mxGeometry>
        </mxCell>
        <mxCell id="D53Oo4E0U6xB47TRFpwZ-18" value="Store" style="rounded=1;whiteSpace=wrap;html=1;" vertex="1" parent="WIyWlLk6GJQsqaUBKTNV-1">
          <mxGeometry x="150" y="1380" width="120" height="60" as="geometry" />
        </mxCell>
        <mxCell id="D53Oo4E0U6xB47TRFpwZ-20" style="edgeStyle=orthogonalEdgeStyle;rounded=0;orthogonalLoop=1;jettySize=auto;html=1;startArrow=none;startFill=0;endArrow=classic;endFill=1;dashed=1;exitX=0.5;exitY=1;exitDx=0;exitDy=0;" edge="1" parent="WIyWlLk6GJQsqaUBKTNV-1" source="D53Oo4E0U6xB47TRFpwZ-12" target="D53Oo4E0U6xB47TRFpwZ-11">
          <mxGeometry relative="1" as="geometry">
            <mxPoint x="290" y="960" as="sourcePoint" />
            <mxPoint x="1360" y="220" as="targetPoint" />
          </mxGeometry>
        </mxCell>
        <mxCell id="D53Oo4E0U6xB47TRFpwZ-27" style="edgeStyle=orthogonalEdgeStyle;rounded=0;orthogonalLoop=1;jettySize=auto;html=1;entryX=0.5;entryY=0;entryDx=0;entryDy=0;startArrow=none;startFill=0;" edge="1" parent="WIyWlLk6GJQsqaUBKTNV-1" source="D53Oo4E0U6xB47TRFpwZ-22" target="pDLvY0O1U7fhV3GYsjCB-36">
          <mxGeometry relative="1" as="geometry" />
        </mxCell>
        <mxCell id="D53Oo4E0U6xB47TRFpwZ-22" value="Calculate stats" style="rounded=1;whiteSpace=wrap;html=1;" vertex="1" parent="WIyWlLk6GJQsqaUBKTNV-1">
          <mxGeometry x="380" y="1590" width="120" height="60" as="geometry" />
        </mxCell>
      </root>
    </mxGraphModel>
  </diagram>
</mxfile>
